<?xml version="1.0" encoding="iso-8859-1"?>
<!-- Uploaded to: SVG Repo, www.svgrepo.com, Generator: SVG Repo Mixer Tools -->
<!DOCTYPE svg PUBLIC "-//W3C//DTD SVG 1.1//EN" "http://www.w3.org/Graphics/SVG/1.1/DTD/svg11.dtd">
<svg fill="#000000" height="800px" width="800px" version="1.1" id="Capa_1" xmlns="http://www.w3.org/2000/svg" xmlns:xlink="http://www.w3.org/1999/xlink" 
	 viewBox="0 0 449.12 449.12" xml:space="preserve">
<g>
	<path d="M230.559,80.839v-4.285c18.396-2.89,32.513-18.847,32.513-38.043C263.072,17.276,245.796,0,224.56,0
		s-38.512,17.276-38.512,38.512c0,19.195,14.116,35.152,32.512,38.042v4.285c-98.798,3.179-178.194,84.529-178.194,184.086
		c0,101.565,82.629,184.194,184.194,184.194s184.195-82.629,184.195-184.194C408.755,165.369,329.357,84.018,230.559,80.839z
		 M198.048,38.512C198.048,23.894,209.941,12,224.56,12s26.512,11.894,26.512,26.512c0,12.555-8.775,23.093-20.513,25.82v-25.82h-12
		v25.82C206.823,61.604,198.048,51.067,198.048,38.512z M224.56,437.12c-94.948,0-172.194-77.246-172.194-172.194
		S129.612,92.731,224.56,92.731c94.949,0,172.195,77.246,172.195,172.194S319.509,437.12,224.56,437.12z"/>
	<path d="M224.56,109.506c-85.699,0-155.419,69.721-155.419,155.42s69.721,155.42,155.419,155.42s155.42-69.721,155.42-155.42
		S310.259,109.506,224.56,109.506z M321.219,370.785l-8.655-10.315l-9.193,7.713l8.658,10.318
		c-9.985,7.708-21.009,14.129-32.825,19.017l-4.627-12.711l-11.275,4.104l4.631,12.725c-11.869,3.774-24.402,6.039-37.375,6.575
		v-13.526h-12v13.526c-12.972-0.537-25.505-2.801-37.373-6.575l4.631-12.725l-11.276-4.104l-4.626,12.711
		c-11.816-4.887-22.839-11.309-32.825-19.017l8.658-10.318l-9.192-7.713l-8.655,10.315c-9.35-8.545-17.567-18.309-24.4-29.038
		l11.684-6.746l-6-10.393l-11.697,6.753c-5.831-11.108-10.247-23.069-13.009-35.644l13.335-2.351l-2.084-11.818L82.398,283.9
		c-0.824-6.21-1.257-12.542-1.257-18.974s0.433-12.764,1.257-18.974l13.333,2.351l2.084-11.818l-13.335-2.351
		c2.762-12.575,7.177-24.536,13.009-35.644l11.697,6.753l6-10.393l-11.684-6.746c6.832-10.729,15.049-20.493,24.4-29.038
		l8.655,10.315l9.192-7.713l-8.658-10.318c9.985-7.708,21.009-14.13,32.824-19.017l4.627,12.711l11.276-4.104l-4.632-12.725
		c11.868-3.774,24.401-6.038,37.373-6.575v13.526h12v-13.526c12.973,0.537,25.506,2.801,37.375,6.575l-4.632,12.725l11.275,4.104
		l4.627-12.711c11.816,4.887,22.839,11.309,32.825,19.017l-8.658,10.318l9.193,7.713l8.655-10.315
		c9.35,8.545,17.567,18.309,24.4,29.038l-11.685,6.746l6,10.393l11.698-6.753c5.831,11.108,10.247,23.069,13.009,35.644
		l-13.336,2.351l2.084,11.818l13.333-2.351c0.824,6.21,1.257,12.542,1.257,18.974s-0.433,12.764-1.257,18.974l-13.333-2.351
		l-2.084,11.818l13.336,2.351c-2.762,12.575-7.177,24.536-13.009,35.644l-11.698-6.753l-6,10.393l11.685,6.746
		C338.787,352.477,330.57,362.24,321.219,370.785z"/>
	<path d="M298.964,182.175l-72.658,50.737c-0.578-0.031-1.16-0.049-1.746-0.049c-17.68,0-32.063,14.384-32.063,32.063
		c0,0.583,0.018,1.163,0.049,1.738l-50.743,72.662c-1.665,2.385-1.38,5.621,0.677,7.678c1.161,1.161,2.697,1.758,4.245,1.758
		c1.194,0,2.395-0.355,3.433-1.081l72.662-50.74c0.577,0.031,1.157,0.049,1.741,0.049c17.68,0,32.064-14.384,32.064-32.063
		c0-0.582-0.018-1.16-0.048-1.734l50.743-72.662c1.666-2.385,1.381-5.621-0.676-7.678
		C304.584,180.794,301.348,180.51,298.964,182.175z M170.981,318.504l26.006-37.24c2.746,4.617,6.617,8.488,11.234,11.235
		L170.981,318.504z M224.56,284.989c-11.063,0-20.063-9-20.063-20.063s9-20.063,20.063-20.063s20.064,9,20.064,20.063
		S235.623,284.989,224.56,284.989z M252.135,248.591c-2.746-4.618-6.616-8.489-11.233-11.236l37.239-26.004L252.135,248.591z"/>
</g>
</svg>